<mxfile host="app.diagrams.net" agent="Mozilla/5.0 (X11; Linux x86_64; rv:138.0) Gecko/20100101 Firefox/138.0" version="28.2.0">
  <diagram name="Page-1" id="y33I3Mletg4osPITFaNL">
    <mxGraphModel dx="1932" dy="2106" grid="1" gridSize="10" guides="1" tooltips="1" connect="1" arrows="1" fold="1" page="1" pageScale="1" pageWidth="850" pageHeight="1100" math="0" shadow="0">
      <root>
        <mxCell id="0" />
        <mxCell id="1" parent="0" />
        <mxCell id="2yFaQCDJbEZuNwVm9jHY-1" value="&lt;div&gt;Internet&lt;/div&gt;" style="image;aspect=fixed;perimeter=ellipsePerimeter;html=1;align=center;shadow=0;dashed=0;spacingTop=3;image=img/lib/active_directory/internet_cloud.svg;" vertex="1" parent="1">
          <mxGeometry x="140" y="248.5" width="97.62" height="61.5" as="geometry" />
        </mxCell>
        <mxCell id="2yFaQCDJbEZuNwVm9jHY-5" value="" style="fontColor=#000000;verticalAlign=middle;verticalLabelPosition=middle;labelPosition=right;align=left;html=1;outlineConnect=0;fillColor=#d6d6d6;strokeColor=#999;gradientColor=none;gradientDirection=north;strokeWidth=2;shape=stencil(ZVHbTsQgEP0aXhsWXHdf11o0pg8a9QOmQAuxCwTQ7v69w6ImXRMuM+dMZs4BwttkIGjCKKSgZSb8njD2BdHCMCPMkDEV3DBacwdHXaE3sHOSUApp7ydf+WVVzztCD6TElPB29FFP0X86tSJ+aXuEqTRLUdYmJueQCMc6gUsq1wwRnBp1lqaxOFBYtXs5Qx/2HSYL7t3tHk/zF2WjUS8TCuIHXjPqbIKbCBdlxkadhvHx9UkcnrsH1fbvN357V32cqoQf1+dVtly9yfUbFb1r54j8M39B6wdcgG8=);labelBackgroundColor=none;aspect=fixed;" vertex="1" parent="1">
          <mxGeometry x="1030" y="-60" width="120" height="120" as="geometry" />
        </mxCell>
        <mxCell id="2yFaQCDJbEZuNwVm9jHY-7" value="" style="fontColor=#000000;verticalAlign=middle;verticalLabelPosition=middle;labelPosition=right;align=left;html=1;outlineConnect=0;fillColor=#d6d6d6;strokeColor=#999;gradientColor=none;gradientDirection=north;strokeWidth=2;shape=stencil(dVHLDgIhDPwajm4QjPHq82T8BYO7yBKFIrCu/r2taOJqTHh0pqWZDkwuU6uCZoKrFHSdmVwxIa4qWnU4Iy0w0xZyLHjBXjldqMvC5gwxap+R34KBUtEPXsg143NGMWdyeYSoTYTON4PEO22dMiQnxbo0aXMOiUms2+DqwhlUU/X2ZJ1urKogGqQJB8IY1+Ac+IRRbjt3wHtKm46d7vcfmvekuEpX6iD4ZBZuo38VVfCmzHYrsl5e3Aeo/3Lq2zmaYegGMj+GPNnyLU/iAQ==);labelBackgroundColor=none;sketch=0;fontFamily=Titillium Web;fontSource=https%3A%2F%2Ffonts.googleapis.com%2Fcss%3Ffamily%3DTitillium%2BWeb;fontSize=14;aspect=fixed;" vertex="1" parent="1">
          <mxGeometry x="1400" y="-60" width="120" height="120" as="geometry" />
        </mxCell>
        <mxCell id="2yFaQCDJbEZuNwVm9jHY-8" value="" style="fontColor=#000000;verticalAlign=middle;verticalLabelPosition=middle;labelPosition=right;align=left;html=1;outlineConnect=0;fillColor=#d6d6d6;strokeColor=#999;gradientColor=none;gradientDirection=north;strokeWidth=2;shape=stencil(bVDRbsMgDPwaHkEMtA+ouvVp73t2CUmQEkA2bdq/n6lbadEmIcB3B76z8keaoUblLFCNoSn/oZy7AiY4Lww7ZmYB35yVOsMaBfpOeSgbMfZVpiLstlP7T2UPqt+t8sexYJywXPKwI150WmHqVgiDfDK3Vkl51p14hSGbEWM8p0iXWpe7CWVlfOHe1E/A/vzkbrytKWChMja9iUntnO5KXfOkG0KmChhzM1yL85s0faa8S6Wtce//Jfs9F/NUdJ/7xIz8Cf1AZewP4Ac=);labelBackgroundColor=none;aspect=fixed;container=1;collapsible=0;" vertex="1" parent="1">
          <mxGeometry x="1580.0000000000005" y="-60" width="120" height="120" as="geometry" />
        </mxCell>
        <mxCell id="2yFaQCDJbEZuNwVm9jHY-9" value="" style="fontColor=#000000;verticalAlign=middle;verticalLabelPosition=middle;labelPosition=right;align=left;html=1;outlineConnect=0;fillColor=#d6d6d6;strokeColor=#999;gradientColor=none;gradientDirection=north;strokeWidth=2;shape=stencil(fZHBDsIgDIafhuOWDfQBzNTTjt6XCriRbLDA5vTtLVRjtkQTUtqvP9AWJqrQwagZLyCMWk5MHBnnd/AGrj1ijpmOYMkLii0MmlBt7PxAckm2dq0jxbI6IU6sOLDoF19HVDfndevdbNVKsdF91GaANpYZvKTLu2kaAxOoO+OSyorcSGdvxirtc+kGpAomwC3ygHuPBYbs6sGqkAkEfPemTYJkQ5N0TR+by/Ylz0fbUl8Pevo9h+cqWjZT2k4t1vmnT1Gh4MdI0Elp+qqUeQE=);labelBackgroundColor=none;rounded=1;dashed=1;" vertex="1" parent="1">
          <mxGeometry x="1630" y="60" width="120" height="120" as="geometry" />
        </mxCell>
        <mxCell id="2yFaQCDJbEZuNwVm9jHY-10" value="" style="fontColor=#000000;verticalAlign=middle;verticalLabelPosition=middle;labelPosition=right;align=left;html=1;outlineConnect=0;fillColor=#d6d6d6;strokeColor=#999;gradientColor=none;gradientDirection=north;strokeWidth=2;shape=stencil(fVHJCsMgEP0ajwmJdqHHkjan/kOYqFlooqLp9vcdM4SSQgui8xb0zchEETpwmvEMgtNyYuLEOL+D76EekOaodETmPCNsYNREnay8ao/UxbaWxMfKLM4sO7JYZ59CFI31uvX2ZtTK8eVb3P0IbUwYvKTLu2lygQn0lbikMpu0l9Y0vVHap9KOyCqYAI/IBzwHDBgSMCqpPe6R2uaYtzzsK+qiipaKfCilzrTU0ZMeTXYEX2u49Cv4elgLjhn/9CgKNPwYBxazTD80K28=);labelBackgroundColor=none;" vertex="1" parent="1">
          <mxGeometry x="1670" y="140" width="120" height="120" as="geometry" />
        </mxCell>
        <mxCell id="2yFaQCDJbEZuNwVm9jHY-14" value="" style="fontColor=#000000;verticalAlign=middle;verticalLabelPosition=middle;labelPosition=right;align=left;html=1;outlineConnect=0;fillColor=#d6d6d6;strokeColor=none;gradientColor=none;gradientDirection=north;strokeWidth=2;shape=stencil(1VpLc6MwDP41OaIBGwwcd7vNbXPJYY8dl5CEWQIZoE32368I4WHyqAMG0plOioWNPn2SZSM8oy/plu/9GdF5uve9bEZ/zQj55EnA30MUE7yzLYS2UzQjvvMLyfL3zxl5QdFivsTf5ZYn5yFplsR//UOwys6DDaDFnUPRZg5YuYC+zvQfKM7/qgv64sVRhGiCOEqFLq2Oje6okQdRJuBbFCr3fhLs/MxPCqleSI/nVoGD6P+EuzMy76F42UGxoULxHxnFor0ljH6KXyUUG0MoXnQx2VCievm4aiVOXnQhW5HJj6uWM5liGpnfmvWNXus48TdJ/BGtZKzY8zz/XPS72rscs4s//ZvuA8e5Z87dB/PEw4uQJxtfw2ttHfKNoCQ5trUkF3rTg+/vG0MNkfmq31HjxyDVkjjjOZ9Xp0FnS8IgalBkGWATRU8egSOLApPmqJfDWzRVes/PZhYY5KmZqh0rQRWzFRFVw+v/5BFY0uUZ6uVwL4xTv9tQMaURoCK/JpijxCFlbYZLSZthXWCYgm1KkzyQMYYqY2r2hzZGWcCYLjjsW0UMZi4in7mePWQa/H+bmDEYOOL7DcE3PrcnzSWXLriWyGUtKZMGA/smgBsZfQxcd4lRh0udIx2w2WCOdEA3RcJqSelIExxzSgCqGVC3kFtgi+9auLq4fTdLdb7S3Xa+KiUlABscd1IAihlQ5xoXmLjJwrzM+q4yDzBDjfaaPTIA1Qwocw0yQ+lg+UTGNRQsY1IAihkYcNZQAhabctaMDEA1AwOuNTTfaKraOHVabBDBqACuUfAMWzSEapuTRi0Fl0wKQDED6lyjV1CnyfW4HyL2pAAUMzDgrBl7h3Qxa8YGoJgBda5pl8pVxiwFIvJSCcoO+nS6FVuurgpAgIqz2KTgKKv4MyCtbVdd8hqywmiBIfqjEtyv+eM8cc47aJmKnFUefujNFKbzVvXIdKt6xZDVS8wVpJVPGqL79ctG8Miw1SuwVNa9jFbRWwerO9OiH+sibRl4mHn7ZhkJNzIwqOjFWvKFE2uAMp+68BXz7oGDR2Kegmm3Q2SE5ECrpNTI1lIF+0bsyAR8r7hSFvAMbLEoYNlg9n29kqCZVB+Zq8RSSb447WBUlWEJmtGc3m+LMomyszm1A+Ss6eGcAT8NMgV72Cf6NjiUORN9HOxnToewOZ3runEM66LrOgjDm4+/6B3s+CZHkyLJJ+O2WbZPZ/RHPp7MvVVEIPDiaB1EKz8BL96hdMUzjv9yeYr/09gLeKidmpoXh3GCQis/pTE/4LD4kGrYgn20EUinrHV40zy74FBWH4rmVmwqM4x+aVgYb+JUe094tEo1TCtzYp6lbydh8Zu+nfq94YL7cbxqKRnC0FNQ3DjJhxen28Wx5NOd/w==);labelBackgroundColor=none;aspect=fixed;" vertex="1" parent="1">
          <mxGeometry x="1540" y="189.99999999999955" width="72" height="80" as="geometry" />
        </mxCell>
        <mxCell id="2yFaQCDJbEZuNwVm9jHY-15" value="&lt;h1 style=&quot;margin-top: 0px;&quot;&gt;Budder&#39;s Homelab&lt;/h1&gt;&lt;p&gt;Ever updating and tweaking, my homelab running all my self hosted services for learning and experimenting&lt;/p&gt;&lt;p&gt;&lt;br&gt;&lt;/p&gt;" style="text;html=1;whiteSpace=wrap;overflow=hidden;rounded=0;" vertex="1" parent="1">
          <mxGeometry x="1160" y="-370" width="190" height="160" as="geometry" />
        </mxCell>
        <mxCell id="2yFaQCDJbEZuNwVm9jHY-18" value="Server Rack" style="shape=image;verticalLabelPosition=bottom;labelBackgroundColor=default;verticalAlign=top;aspect=fixed;imageAspect=0;image=data:image/png,iVBORw0KGgoAAAANSUhEUgAAAgAAAAIACAYAAAD0eNT6AAAACXBIWXMAAAsTAAALEwEAmpwYAAAAtGVYSWZJSSoACAAAAAYAEgEDAAEAAAABAAAAGgEFAAEAAABWAAAAGwEFAAEAAABeAAAAKAEDAAEAAAACAAAAEwIDAAEAAAABAAAAaYcEAAEAAABmAAAAAAAAAEgAAAABAAAASAAAAAEAAAAGAACQBwAEAAAAMDIxMAGRBwAEAAAAAQIDAACgBwAEAAAAMDEwMAGgAwABAAAA//8AAAKgBAABAAAAAAIAAAOgBAABAAAAAAIAAAAAAACRX/HaAAAQVklEQVR4nO3dX4il913H8e/vzElZVtKUUFptN5RqY+OFor1xo4UKTS20ilB36kVj/pyzbLGogTZYk7PLMt2ZpNXGLVJT2c5z1tBeSE4KFaog9aaVmlUsiFVsbKo0XS+KGEg2adLszPnJ2JagtplJ8mx/O8/39YIJBPZ8+cCEzHvPMzsbAQAAAAAAAAAAAAAAAAAAAAAAAAAAAAAAAAAAAAAAAAAAAAAAAAAAAAAAAAAAAAAAAAAAAAAAAAAAAAAAAAAAAAAAAAAAAAAAAAAAAAAAAAAAAAAAAAAAAAAAAAAAAAAAAAAAAAAAAAAAkEhpPWCIJpPZeyPi+tY7AAbiwfl84w9ajxiacesBA3V9KeVI6xEAQ1BrbT1hkEatBwAAP3gCAAASEgAAkJAAAICEBAAAJCQAACAhAQAACQkAAEhIAABAQgIAABISAACQkAAAgIQEAAAkJAAAICEBAAAJCQAASEgAAEBCAgAAEhIAAJDQuPUA9qbWej4izrXeAbCLw6WUQ61HsDsBsH+cm883VluPAHguk8lsERFHWu9gdx4BAEBCAgAAEhIAAJCQAACAhAQAACQkAAAgIQEAAAkJAABISAAAQEICAAASEgAAkJAAAICEBAAAJCQAACAhAQAACQkAAEhIAABAQgIAABISAACQkAAAgITGrQfQ1nR6vPZ/tb6z6zYWfV6cTmerEeX+6FnXrZe+b04ms0Up5UifN2utD8znG6uR9POfzdGjv/vjy+X4XaXEL9Qa10bUqyLim6XEVyPKF5bLcv/Zs6f+tvVO9jcBAHCZuOWW2TUrK+V0rfGOUuJ/4rR8+587/zgYES+PiJ8djep7p9PZ5yJGs6479YXWu9mfPAIAuAxMpyfeMhqVL0XEr373K/5zK2+qdfn5yWR2fG+/Hv43AQDQ2NGjJ95aa/3zUmLnrf49K6WMSimnJpPjf3Tp1jFUAgCgoaNHZ6+ttS5KiSte6I1S4jem09m7+13G0AkAgIaWy/hoRFz5Yu/UWj40nd7xyn5WkYEAAGjkllvufEMp5W193Pr244OV3+zjFjkIAIBGVlbKTT2fvLnnewyYAABopry554PX7PwMgZ5vMlACAKCNElFf1//ZsQBgTwQAQAM33vi+gxHlQN93t7fj6r5vMkwCAKCBgwcvPLPzzft93x2N6rf6vskwCQCABs6cOXMxIh7p+24po4f7vskwCQCARmqNc/3eq09cvDj65z5vMlwCAKCZZa9/a2Ip8Zn77lt7us+bDJcAAGjkwoWvfDqiPtTTuRpRT/d0iwQEAEAji8Viu5Ryex/fDFhr/EnX3fV3/SwjAwEA0NDm5vpnIuLF/s79nyK+dVtPk0hCAAA01nXrt9caH3shr601/jFi+4b5/Pcv9L+MIRMAAO3V+Xz9PbXGtNb66J5eUOuy1nrmmWee+rmuu/sbl34iQyMAAC4T8/n6vJTxtbXWWa3x5e/1a74TCB8vZfkz8/nGuz/5yXue/MEvZQjGrQcA8KyuW9v5An/Xzsd0escrl8vxdRHbV5dSnowoX5vPN/71UvwEQfIRAACXqe+8te/tfS4JjwAAICEBAAAJCQAASEgAAEBCAgAAEhIAAJCQAACAhAQAACQkAAAgIQEAAAkJAABISAAAQEICAAASEgAAkJAAAICEBAAAJCQAACAhAQAACQkAAEhIAABAQgIAABISAACQkAAAgIQEAAAkJAAAICEBAAAJCQAASEgAAEBCAgAAEhIAAJCQAACAhAQAACQkAAAgIQEAAAkJAABISAAAQEICAAASEgAAkJAAAICEBAAAJCQAACChcesBtNV16yX2ga7bWETEvtg6n2+sxj6xXz7/QP+8AwAACQkAAEhIAABAQgIAABISAACQkAAAgIQEAAAkJAAAICEBAAAJCQAASEgAAEBCAgAAEhIAAJCQAACAhAQAACQkAAAgIQEAAAkJAABISAAAQEICAAASGrcewJ4dnkxmi9YjAHZxuPUA9kYA7BOllEMRcaT1DgCGwSMAAEhIAABAQgIAABISAACQkAAAgIQEAAAkJAAAICEBAAAJCQAASEgAAEBCAgAAEhIAAJCQAACAhAQAACQkAAAgIQEAAAkJAABISAAAQEICAAASGrcewN7UWs9HxLnWOwB2cbiUcqj1CHYnAPaPc/P5xmrrEQDPZTKZLSLiSOsd7M4jAABISAAAQEICAAASEgAAkJAAAICEBAAAJCQAACAhAQAACQkAAEhIAABAQgIAABISAACQkAAAgIQEAAAkJAAAICEBAAAJCQAASEgAAEBCAgAAEhIAAJDQuPUA2ppOj9f+r9Z3dt3Gos+L0+lsNaLcHz3ruvXS983JZLYopRzp82at9YH5fGM1kn7+s5lMjr8+ot4cEW+MiJ+IiJdFlCcj4t8j4vOjUXlgc/PUX7feyf4mAAAuE5PJ7DUR8eFS4kjE/2vTqyLip3c+aq2/PZ3OHixl9Fubm6e+2GYt+51HAACXgVtvnd1QSvzD3t89Ktcvl/XByeT4bZd6G8MkAAAau/XWE28qpfxFRHnZ83ldKXFFKfGR6XT2O5duHUMlAAAauummO19dyvL+nS/mL/RGrXH3dHriLf0uY+gEAEBD4/HoRCnlFS/mRillFFE/vrp68iX9LWPoBABAI5PJyVeVUm/t6dxrrrxya+dPDsCeCACAZrZ3/nhrb79rLyXe1dcthk8AADRT397vvfLGm28+eaDfmwyVAABopJS4tueTK6Vs932TgRIAAO28qu+DpdSdHxgEuxIAAM309/z/WaOL/d9kiAQAQCO11mXfN7e2Lj7c902GSQAANFM+3+e1WuOrn/jEB/+rz5sMlwAAaKSUcle/F+uf9nuPIRMAAI103anP1lp7+Wt9a63fHI3Gf9zHLXIQAAAN1To60c/3ApTf29xcO9/HJnIQAAANnT176nOlxNqLuVFr/eyFCw+t97eKDAQAQGNdt3Gq1nr6Bb78rw4cGL9jsVhs9zyLgRMAAO3V+Xzjvctl/FpE/MeeXlDjYq3xgccfX3n7vfeuPXHpJzI0AgDgMnH27Pr9jz/+5LURy9tqjb/5Pt8bsBMIHxmN6uvn8/WTi8XaMw2mMgDj1gMAeNZicfqpiPjDnY/p9OTVtV780dEoXl1reSxifL7r1vygH3ohAAAuU1239mhE7Hz8festDI9HAACQkAAAgIQEAAAkJAAAICEBAAAJCQAASEgAAEBCAgAAEhIAAJCQAACAhAQAACQkAAAgIQEAAAkJAABISAAAQEICAAASEgAAkJAAAICEBAAAJCQAACAhAQAACQkAAEhIAABAQgIAABISAACQkAAAgIQEAAAkJAAAICEBAAAJCQAASEgAAEBCAgAAEhIAAJCQAACAhAQAACQkAAAgIQEAAAkJAABISAAAQEICAAASEgAAkNC49QDa6rr1EvtA120sImJfbJ3PN1Zjn9gvn3+gf94BAICEBAAAJCQAACAhAQAACQkAAEhIAABAQgIAABISAACQkAAAgIQEAAAkJAAAICEBAAAJCQAASEgAAEBCAgAAEhIAAJCQAACAhAQAACQkAAAgIQEAAAmNWw9gzw5PJrNF6xEAuzjcegB7IwD2iVLKoYg40noHAMPgEQAAJCQAACAhAQAACQkAAEhIAABAQgIAABISAACQkAAAgIQEAAAkJAAAICEBAAAJCQAASEgAAEBCAgAAEhIAAJCQAACAhAQAACQkAAAgIQEAAAmNWw9gb2qt5yPiXOsdALs4XEo51HoEuxMA+8e5+XxjtfUIgOcymcwWEXGk9Q525xEAACQkAAAgIQEAAAkJAABISAAAQEICAAASEgAAkJAAAICEBAAAJCQAACAhAQAACQkAAEhIAABAQgIAABISAACQkAAAgIQEAAAkJAAAICEBAAAJjVsPAOD7O3bszh/Z2hr98GgUzzz22JP/tlicfqr1JoZBACQ3nR6v/V+t7+y6jUWfF6fT2WpEuT961nXrpe+bk8lsUUo50ufNWusD8/nGaiT9/Gczmcx+sZS4tda4YXu7vLyUnf8GIl760h+qk8nxL0XU+w4cGJ+59961J1pvZf8SAACXiWPH7rhua2u0WUr5+Z1/3/nC/3+UUuKnIso9Tz+9dcd0evyDhw6tnF5bW1u22Mv+5nsAAC4D0+mdv7y1Nfrid7/476aU8vKI+PDXv771Z8eOvf+qS7+QoREAAI0dPXrirbWOPlVKOfh8X1tK+aXt7SseOHnypHd0eV4EAEBDR4/OXltrXZQSV7yIMzecP791V4+zSEAAADS0XMZHI+LKHk7dduzY7Md6uEMSAgCgkVtuufMNpZS39XOtvGR7u7y/n1tkIAAAGllZKTf1ea/W+isnT570/3X2xH8oAM2UN/d6rZRXPPLI9k/2eZPhEgAAbez8eJ/X9X10ZSWu6fsmwyQAABq48cb3HYwoB/q+u70dV/d9k2ESAAANHDx44Zmdx/b9X17+Z/83GSIBANDAmTNnLkbEI/1frl/r/yZDJAAAGqk1zvV88utnz979Lz3fZKAEAEAzy77/1sRPXZrHCgyRAABo5MKFr3w6oj7U07mnSlm5p6dbJCAAABpZLBbbpZTb+/lde/3A5uba+T52kYMAAGhoc3P9MxFx+kWeWXTdxod6mkQSAgCgsa5bv73W+NgLeW2tcXZra2XnRwp79s/zIgAA2qvz+fp7ao1prfXRPb2gxlcj4tfn8/XJffetPX3pJzI0AgDgMjGfr89LGV9ba53VGl/+Hr/kyVrrX0bEu665ZuW6rlv/ZIOZDMS49QAAntV1azvvANy18zGd3vHK5XJ8XSn1qlq3H37iiYcf2vnGwdYbGQYBAHCZ6rq7vxEROx/QO48AACAhAQAACQkAAEhIAABAQgIAABISAACQkAAAgIQEAAAkJAAAICEBAAAJCQAASEgAAEBCAgAAEhIAAJCQAACAhAQAACQkAAAgIQEAAAkJAABISAAAQEICAAASEgAAkJAAAICEBAAAJCQAACAhAQAACQkAAEhIAABAQgIAABISAACQkAAAgIQEAAAkJAAAICEBAAAJCQAASEgAAEBCAgAAEhIAAJCQAACAhAQAACQkAAAgoXHrAbTVdesl9oGu21hExL7YOp9vrMY+sV8+/0D/vAMAAAkJAABISAAAQEICAAASEgAAkJAAAICEBAAAJCQAACAhAQAACQkAAEhIAABAQgIAABISAACQkAAAgIQEAAAkJAAAICEBAAAJCQAASEgAAEBCAgAAEhq3HsCeHZ5MZovWIwB2cbj1APZGAOwTpZRDEXGk9Q4AhsEjAABISAAAQEICAAASEgAAkJAAAICEBAAAJCQAACAhAQAACQkAAEhIAABAQgIAABISAACQkAAAgIQEAAAkJAAAICEBAAAJCQAASEgAAEBCAgAAEhq3HjBQD9ZaW28AGIoHWw8AAAAAAAAAAAAAAAAAAAAAAAAAAAAAAAAAAAAAAAAAAAAAAAAAAAAAAAAAAAAAAAAAAAAAAAAAAAAAAAAAAAAAAAAAAAAAAAAAAAAAAAAAAAAAAAAAAAAAAAAAAAAAAAAAAAAAAAAAAAAg9rf/BowkvuYugA7zAAAAAElFTkSuQmCC;" vertex="1" parent="1">
          <mxGeometry x="20" y="730" width="100" height="100" as="geometry" />
        </mxCell>
        <mxCell id="2yFaQCDJbEZuNwVm9jHY-19" value="&lt;div&gt;Cloudflare domain&lt;/div&gt;&lt;div&gt;Budder.UK&lt;/div&gt;" style="text;html=1;align=center;verticalAlign=middle;resizable=0;points=[];autosize=1;strokeColor=none;fillColor=none;" vertex="1" parent="1">
          <mxGeometry x="610" y="343.5" width="120" height="40" as="geometry" />
        </mxCell>
        <mxCell id="2yFaQCDJbEZuNwVm9jHY-32" style="edgeStyle=orthogonalEdgeStyle;rounded=0;orthogonalLoop=1;jettySize=auto;html=1;" edge="1" parent="1" source="2yFaQCDJbEZuNwVm9jHY-22">
          <mxGeometry relative="1" as="geometry">
            <mxPoint x="200" y="240" as="targetPoint" />
          </mxGeometry>
        </mxCell>
        <mxCell id="2yFaQCDJbEZuNwVm9jHY-22" value="Oracle VPS" style="shape=image;verticalLabelPosition=bottom;labelBackgroundColor=default;verticalAlign=top;aspect=fixed;imageAspect=0;image=data:image/png,iVBORw0KGgoAAAANSUhEUgAAAlgAAAIZCAYAAAB6YkEVAAAAGXRFWHRTb2Z0d2FyZQBBZG9iZSBJbWFnZVJlYWR5ccllPAAAAyNpVFh0WE1MOmNvbS5hZG9iZS54bXAAAAAAADw/eHBhY2tldCBiZWdpbj0i77u/IiBpZD0iVzVNME1wQ2VoaUh6cmVTek5UY3prYzlkIj8+IDx4OnhtcG1ldGEgeG1sbnM6eD0iYWRvYmU6bnM6bWV0YS8iIHg6eG1wdGs9IkFkb2JlIFhNUCBDb3JlIDUuNi1jMTQwIDc5LjE2MDQ1MSwgMjAxNy8wNS8wNi0wMTowODoyMSAgICAgICAgIj4gPHJkZjpSREYgeG1sbnM6cmRmPSJodHRwOi8vd3d3LnczLm9yZy8xOTk5LzAyLzIyLXJkZi1zeW50YXgtbnMjIj4gPHJkZjpEZXNjcmlwdGlvbiByZGY6YWJvdXQ9IiIgeG1sbnM6eG1wPSJodHRwOi8vbnMuYWRvYmUuY29tL3hhcC8xLjAvIiB4bWxuczp4bXBNTT0iaHR0cDovL25zLmFkb2JlLmNvbS94YXAvMS4wL21tLyIgeG1sbnM6c3RSZWY9Imh0dHA6Ly9ucy5hZG9iZS5jb20veGFwLzEuMC9zVHlwZS9SZXNvdXJjZVJlZiMiIHhtcDpDcmVhdG9yVG9vbD0iQWRvYmUgUGhvdG9zaG9wIENDIChNYWNpbnRvc2gpIiB4bXBNTTpJbnN0YW5jZUlEPSJ4bXAuaWlkOkM4OUIwM0RDMjEwOTExRThCNDg0OUIxRjIwRUZGOTYwIiB4bXBNTTpEb2N1bWVudElEPSJ4bXAuZGlkOkM4OUIwM0REMjEwOTExRThCNDg0OUIxRjIwRUZGOTYwIj4gPHhtcE1NOkRlcml2ZWRGcm9tIHN0UmVmOmluc3RhbmNlSUQ9InhtcC5paWQ6Qzg5QjAzREEyMTA5MTFFOEI0ODQ5QjFGMjBFRkY5NjAiIHN0UmVmOmRvY3VtZW50SUQ9InhtcC5kaWQ6Qzg5QjAzREIyMTA5MTFFOEI0ODQ5QjFGMjBFRkY5NjAiLz4gPC9yZGY6RGVzY3JpcHRpb24+IDwvcmRmOlJERj4gPC94OnhtcG1ldGE+IDw/eHBhY2tldCBlbmQ9InIiPz7cMxvJAABTy0lEQVR42uzdBWAUV/4H8O9qNu7EAyFYcAju0OAUKFf3Uqr0Wmipt1dvr0YF6nC99l+hSKG4E9ydoAEC8UBc1nf/bzbQcjVsNln5fnp7EGECv5md+b43b95T2O12EBEREZF8lCwBEREREQMWEREREQMWEREREQMWERERETFgERERETFgERERETFgEREREREDFhEREREDFhEREREDFhERERExYBERERExYBERERExYBERERExYBERERERAxYRERERAxYRERERAxYRERERMWARERERMWARERERMWAREREREQMWEREREQMWEREREQMWERERETFgERERETFgERERETFgERERETFgEREREREDFhEREREDFhEREREDFhERERExYBERERExYBERERExYBERERERAxYRERERAxYRERERAxYRERERMWARERERMWARERERMWARERERMWAREREREQMWEREREQMWEREREQMWERERETFgERERETFgERERETFgEREREREDFhEREREDFhEREREDFhERERExYBERERExYBERERExYBERERExYBERERERAxYRERERAxYRERERAxYRERERMWARERERMWARERERMWAREREREQMWEREREQMWEREREQMWEREREQMWERERETFgERERETFgERERETFgEREREREDFhEREREDFhEREREDFhERERExYBERERExYBERERExYBERERHRBdQsAZHnOVENmKzwhwIB4kO/KjN85+Qg3GaHVnwcKV4K8bKLV4j09XN/rFS8as41vMziVeKjQs0NCSjTKB2fr4YN1Q0DYPBVscZERH9HYbfbWQUiNyPCEywiCK0uRKTRioalZsTNzEaS+FKyeEsnrD+LcKMF4SJGhYrPBYoo5euITJd9hhAvjeN3VeJVLgJWWYsQnE3wQ6HYZrYIXsduScRpXyVOtwxBdnIAKlTiz0gvIiIGLCJyWUYbcLoKumPVSNhYhNbHa9BmUxFa2RRomVuJaBF0wiD1Ol0YalT4rY/qfFC6UvbfBS7r7z5nd7wMvr4ojdDiZLAWB0bG4GCQD3aNiUOmjwr5iX7cj0TEgEVE9cgsAtW+MgRkVqLtj9nodLwSPTPK0Vq8VZvCAo3jBt750ZOuNIrSfsHLWhvGFBqU+KlxsHcYdqVGYFPnMOzu1wBHgzXcz0TEgEVETnayGmoRoloszEG/pYXol6NHZ6sRiY4AJfUaueuYp/Onl996vapjAnAwKQAbRsZh5Zg4bIv2w9lAjgYlIgYsIpLDsUr4ry5Alzk5GJ5+Fv3NFrQXQUT56+09Tx3HZDsXtsSvSjXyGwdg84AoLPhHAlb2a4AcLZ9tJiIGLCK6HKeq4Tc3Fz3m5+DG7cVIqzIgydFLpfLgQHUpgUvq4VKitFEQ0kfH4JcRcVjaJQKF7NkiIgYsIvpT1Rbg+1NoO+c0bkw/izEmI1J+ve3Hp+3+GLYsjtoUNgnEsvFNMSMtBmtaB8PA4hARAxYROW4BTj6Caxfn4q7TVRggPqVlqLr8sOWjRcbNifhhWBx+/EcCTnIKCCJiwCLyQgvykPj1CdyxohB3VunRzBGqOK7oytlrg5YIpmWpEfj5sWb4ql8UtiRw6gciYsAi8oJglYtWkw/j4fQC3CJCQahjnQT2tshLGqtlgy3MD8vHJeOTfzbD4nhfR18XEREDFpFHBas8tH37ECZuLMRNjhnTOTDb+c4NjI/ww9b7k/HRg00xO8HviuaqJyJiwCJyJQtz0fz9w3g8vQB3ig91DFb1FLQsQJg/to5LxpuPNsP8OF+WhYgYsIjczoJcNHjnMCZuKMSDsCOEwcp1glaEP9Y81Ayvv9waqznsjYgYsIjcwNFKqCYfxrgvjuI58WEig5WLBi0r0LkBZjyVgtdHxyNDzXFwRMSAReR6DOKi/fUJ9H1qN96sMqIHuI6e67M4wlZFWjw+/jgV76cEoYxFISIGLCIXsfYMIh/ehn8dLMWDUIv/2BvidkFLp8Lh+5rhhbfaYo4/ex2JiAGLqP4Um4C3MzDmvcN4R7xFkt12sWX6dR6t5mH4/vNOeL5fA5xiUYiIAYuoji0rQIMnd+Ot/Wcx1nE70J17raS3t/XCd/y5z13K215xwfef/9idg2ZtHQqfaoWnn2+Fb4LYm0VEDFhEzmcRb4WvMjHw4R2YKkJFM7cJE7Zz4cd67vdKx8so/g1nlWoUdwlDsfhMgXgVic+VxPujZGgMasTHJvEq+12ElH4fKkWpdUUIPlKOYLGtCPFxVJUFsQdKxNcUiBQfRzh+nv1c6FJe8KddnRFIbYAf3myPSYOikc8jn4gYsIicZE8Z1C/swfOLsvECNC4+1up8sKkNU4YwPxES7DjYNwpHojQ42igQh9KiUSgFLJ0Kpa2C5ZnpXAqge0vhI2oTYbYh/KfTaGSwos3uMjQ/Vo7mJRY0FZEt1BG2FOdCl6vW0QJoVTj5QDM89nFHLOA7gIgYsIhktigPDe/Ygk9LazDMJZ8QPDf1wLlbdgXNg3E4KRAbx8RhT7AWBwZF47QIUzUh2nr664lTSIUZyr3liDxajtbbStFhTzF67ShHGxFkGv/ay6VwscBVOzbLPjQe/56cipdaBHImeCJiwCKSxTN7kfb2fkwTAaChSy3IbD33UqI60h/bh0VhQ+swpPeJwIF2oSj0cYNZNPeWIfBIBVrNy0bakiL0LTOhG0wIcIQtV7r9agIaBmPl5I64d0y8CKtERAxYRFcmVw88vguPzMzCe+Ji71PvPSvnb/lJLzUK2ocg/R8JWNQsCBsGRSMrxM3n3ioRISajHI2W5KHvglyMPFCOfiJAhv3P+K36VDsT/Kn3u2Ds482xmu8QImLAIrpMeXpoB6/B5ANnMV5Eq/q/sFsBlRpn24VixeAYzBsTj/ROYSjy1PpLtxS3lSDhvycx9KdTuKnMgD6OWFnfT/XVhlzj6ARM+G83fB7MCWWJiAGL6NLsKkX4nVvwdUYxrq3X8VYWxwXdHh+A9f2j8P1jzbFABKx8b1vWRZpvbFEeOvySg5t/zsYtoi4JjqBVn71aRqB3HN6f3wdPh2j+Z5ILIiIGLKLf+zYLSfduxiyLHan1NgZIClYKlF0ThZ+HxmH62MbYFKrlvpFsOovQ6ccxZnEB7i2oQPd6DVpiPzUJwtwPO+Ge4TEo594hIgYsoj/xTRY63L0Js0S4Sa6Xi3ZtsCocEoNpj6fg64HROM698ucKDVB8cgyDvsjEhKIqDBJBS1lf+8xXjY2z++DGYTHI454hIgYsov8NV93v2YQ5dgVi6vxCXRus8gbE4PNnUvCVCFYF3COXpsAAfJmJ3p8dwxMFVRhVLz1aNsBHiYw5fTB6eAwyuVeIiAGLqDZcpZ3ruQqp04tz7cid8iEx+HRiCqZwxvArVyiCltSj9XkmnjxThbQ6D1pWx4LRx0XIumFYDHZzjxARAxZ5tW9rw9XPdgUC6+yCXPu4v61xKL7+vBPeHBiNE9wT8sjXQ/FlJm768AheLNOjJepy7JrYrzol8mf3wbXDY7CTe4OIGLDIK53ruZoNhWMtvbphBuKDsO6xZnjx/iZYx8WEnWN7CQLePIAJ83LxJOwIqrMHFmp7svLn9MGIYTHYxT1BRAxY5FW+zUJPEa6W1FnPVe3twOLbk/DqR6n4NEzrGHlFTvb9KbR4aS/eOF6OMXXWm3WuJ0uErGuHsSeLiBiwyFt8k4V2IlwthgKxdRKuTEBiEOb/uwOeviURh7kH6pY0I/+L+3D318fwBlR1tM9re7LyRMhKEyHrEPcCETFgkUf7NgvJIlwttyvQ2OkX2toZ2MvvaYLnX26LTxL9WP/6NCcHieN34L3Catzw68LSTt7/OiWOiJA1RISsLO4BImLAIo+0IA8RI9dgpQhW7ZwerqT5kTTY9n0P3HddPPax+q5Betpwwi48OCMLb4uAFVQXIVuErB0iZA0VIess9wARMWCRR8kzQDtgFRYcKXNMSulc4iLeNx6ffZiKJ9uHoJrVdz3/l4X292/FZwYrujl9AHxtyFq+dzhGNguQFtkhIqqlZAnIneXogUFrMNXp4Upqh1hR/WgbjJvfFw8zXLmuOxphz46hGNgqDNOdHnnEGdRgwaBxW/FpuZm1JyIGLPIQT+3BxIwzuM+p4Up6StCCzA86YdBHHTGd0y+4vlZBqFrdD+MmtsY/YYYJzuyoF8fD+jyMHbkOL+i5NDQRMWCRu3t2Hwb9eALvwMeJP8QCNAzAuu96Y8CEZtjEqruPBjpgckdMfbYtRoqQVeB4MMFZtMC6XLz23hGMYeWJSMIxWOSWVhYiaeAKbIQGMU4OVzOXDcC9zQNRxaq7r5nZaP3gdswoNaCVU8dlWVDyURf0ebQpMlh1IgYsVoHcytFKaHotx4ozJvR1Wh+sFK4C8eny/vhns0Cn9n1QHdlWgthhazCj2IjeTgtZ4kgJVGPvjiHoI46bCladyHvxFiG5lRorMGE3Xjujd2K4MgPJQZi8rD/GM1x5ji5hyFvYH8NDfbDIaXPti2Oy0oR2Q9bioxqOxyJiwCJyFy8dwPAlJ/E0NE76ASbg/uZ4YetgPNE8kPX2NN3CUCmC85hwHb6DswKQGjhZhrsn7sI4G28QEHkt3iIkt7H+LKIGrsQ2I5DolJm6zSJctcALX3TCG6y2Z9tSDM2wdPyn1IDbnfYEqhEV3/VF99sa4iArTsSAReSSqi1A9xX4aX8pbnTK+BkT0Dka720biCdZbe+wrQSqYWvwTbERtznlmLIBQVpsOjQMA2J9OQkpkbfhLUJyC68dxC37zzopXJmBRsGY8m1Xhitv0iUM1oX9cE+oD+Y5ZUyWOLtW6NHjgR14jtUm8j7swSKXt7kYsb1WYKcNiJb91qC4sCYG4qfl/XFL80DwzeCFtpUgYNgazC02Is0pAd4Cw/Qe6DM2Cdvr699YYhJ/DelxDYXjhqjP3zSupfnopYlZbdI8YkTEgEUeymAFOi3HtxkluEP2sTJi20kBSF/aHyOaBXLpG2+2pQQR16Zj+VkjOsjery+Oswa+2L55EHo39nfurUIRFn1MViSUmhEzOxvJ4lONrHbELy9AuN6CMBGw/MXnQuAYiv+HBoXUfKlyvOwo7xyOkgQ/FIrfn9KpkXlzInI0QG6LYBRF+PCYIWLAIrc2aS+GvL8PS6SZsmVVu7bgsa1D0U96fJ+VpgV5SBq5CuvEsRYv+8ZNwD8a45mZPfC2UqZeWBEGlTtKkXioDJ1m5qBttQVd9pchSRzXsSIqBfzPBCOqc/HpMoPh/0QwpePjgthA5DfQYG+vKOxu7o+dncKR0TEMZVoOOCFiwCL3cKoGfu2WYGu5Ca3l7lVQWlHxXidcM7EZdrDSdN6z+9Dz3/uwDBpHT4/cIavyx75IvTkRx650E9tK0GB2Nroeq8CA1UXoXmEW7w2z+LuqLghSzmY7F7zO/arQoKBNCLalhiJ9ZCxW92yAA5E+4CxgxIDFgEWuKi0dz6zKxVuy3xo0AA+0xq2fp+JHVpl+b+Ju3PbhAXwne6+pBWgVhrkb0jAm5BLncTOJELO7FA2W5GHg3FyM2leKXiK61C4Pdf59oajngp0PW7U9ZraYQGQk+mPpTfFYMCwOm5sHOm1aVyIGLKLLJVrnCdesxF7RIg+V+yLXIwofzO+Dx8O1rDP9UbkZ6LUC7x4oxSTZw70ReLwdRr7fDgv+7ttOVkP32TEMWJaPWw6UY7DNjEhH75TKDQp4vofLCvj5YdeYGMy6viFmj4pDJo8uYsAiqkfSwPbBa/HVunyMk/UCJw51fwU2bBqMgW1DpH4soj+Xq4em10osyqrEQFlDjTgGQzQ4sH0wujYJQM3vv7wkDwkfHsGtW4pxZ4UeLR0/W7o9rnDTQtprGzXi31DVLhRLr0vAVw83xcpIHy5BRQxYRHXu/SNoP2krtsFH5gVxzCiZ1Q/dr4/HUVaZLmZ2DhJuXY8tZoVj0LicxyH6xmFien98eP5T83ORMvkwHlhbgFvFh5FXNCjd1VlrX7HB2DoqFp/fmYRZ3cL59C4xYBHVCen2TOslmJdTjVGyDmw3Abc0xT3fd8N/FSwzXaJXMzDypZ2YJ8K+vIeNFfmL+qOVTono1w5gUnoBbhGf9XXasj2uROq7soiLjxoHb0jAh5Na4v86h7FHmRiwiJzq/SPoPmkb1kMr440ZcUJv6IeZGwfhpjhf1pgunbREU/81mLK9CI/Ifbtao8JWsxXNRNgK9Ypg9Sc1kHrzAnyx67kUvDuuCWZEcn4tYsAikl+5CWi5FPPy5Oy9kh4jt6Nw6xB06ByKfFaZLte2EgT1W4GtejtayNqPdf7U6+1dqud6tGIDsPzFNnjpwSbYwqOOPAGnhiOXMe0kuueVY4SsR6U4cY9piGcZruhKdQlDxROt8Ig4luSd20nBcPXrVUgL5Bkw6KFtWN9vJSanF8n89DBRPWAPFrmECjPQagnm5lRjtGwBS7SMG+iw4uBwDA7Xcp1BuoqcLo6ezssxZU+xCFoq1sOpxLnAV4PMR1rgqdfbYC5niCd3bjsQ1btpJ9A2pxzDZD0i7TBM7YQnGa7oaqkVwPQu+JdSgVOshpNpAL0dTd7dj587LcdnW4sRzKIQAxbRFeUgYF4uHhFHo3xTf1qAnlH47IYE7GWFSQ4dQ1F6cxKek3pYyMkUtUFrfwke7L4M66YeQw8WhdzuMOYtQqpvq4sQl7YSB+wqhMgYsAqWXoO2g6NxhhUmuZSaoExZjGWFNUjjrcI6bIFZUTMsHk//1BNTA9QsCbkH9mBRvXvnEO6022QMVybg4RZ4h+GK5Baqhe2JFnhOXPTZj1Vn3QCQ1l30W3waU0atxX92ljphIW4iZxy67MGi+pSrh67NYuwuNcv0CLwN8FUjM2MYOiT5o4oVJmfotQpfbyzA3WBvSt0SsdZPi7Xz+uKOgVHIZkHIlbEHi+rVp8eQVloj4/xCFmBsMt5kuCJneqEVXhe/VLrtP+DcYsy/vtxlZUANUGNB39FrsWJZAdrySCRXxh4sqjdGcWLvshI/7SvGjbKMZxGHcqAKhw4MR2qiH/SsMDmLlEd6r8LUTQUY75K9WPYLQpTjTH+++SEaHjYYAvxgiNY5PnYwiX/Q6Qr4ij+jFd8r3YLz+59nb1Uu1hy3SXcNUfBAM9w0NRXreESSK2IHN9WbRflI2HcGw2Rb0llcLu5qhk8YrsjZpKzxYitMHlqAO8VvA10iUNnOBSoVbGoVTsT641iHUBxWKXDg5kRk+6txVny1RHxfddMgVDYJ/G0cmV78uXVFCJTusIsPpWkRwlcXIiqzAk3FP7bN+jNoXGJEivgToY5/vLKeA5fSMTdZ9CcH8Yv4q9/+WSoW8agkV8MeLKo3t23B+B8yMVWWgFV7GGcfGY7WzQJRwepSXWQaqRdrY331Yp3voRKpKMgPJ6J9sW5MHDa2DMbm3hE4HeKDyhCZGi8FBuB0NaKX5qP1xmL0PFKOPqcq0VH8HULqvXfLBMNDKbj1006Yy6OSGLDI65WZoUhZhHUFevSS5eRsAXpE49U1/fESZ36murIkH8nD1mC/CBl1t4z4uVDl44PD/SKx5Pp4zBsQjR2N/FGjrKOldwzi75BehIYzs9F3TSGuy6rEAPF3CnIEzfpY/keErAdbYuRnqVjBo5IYsMir/ZKLlqPXYDc08kwuqrahakF/tB4SzZm2qe7YxOmz92p8uakA9zm9F0saMaVEdbMgLLwvGd9en4B0KVTVdw3KzcCWs2i0IBfXfXcKt5fr0bFegpYRJRPbYvTk9ljPI5MYsMhr3b4FT32fibdluT0oWtNNgvHdseG4g5WlurYkH/HDVmKbaCrEOC1YKZB/TQy+fjoF3w6IwhGViy4SfbIams+OYej04xhfUoNBjqBVVz3K4lKmVaBgYT+kDYxCBo9Mqm+8mUJ1rswE1bICjJJtJmwbcHcSvmZlqT4MjkHOI63wEEy/PrMnX7Cy4uzAWLyyuD86ruyP5wdGu264kiT5w/xOe8zfMxSDn2iNIUFaLHMMpa+LdrzC8TRk9Oi1mL2iEFE8Mqm+sQeL6tzcXDQfk479onV79f1X4vBVq3AgawRS43ylOdyJ6sc/d2H81AxMveqb3rVPA5quicNXT6fgPRGqsty1JiergU+P4tr/nMDLJYZztw6dTcRcfw3W7B2KIckBPCdQ/WEPFtW5WdkYJIKRPM83iZPpqDj8FK3jiZTq15SO+OSfrXA7jCi7ook7pbauOIoDNVj/Xmf0Xdkfj7hzuJIk+QPvdsCCPUPRY3RDPAWLqI3VyT9UBVSb0P/+bfigggsaEQMWeZPtxRgs45FnfCAZc1z5tgl5j4874vuve6N3sBaLHJHfiovfHpPCmNmRCwpvS8aEdWkY8ERzbPGkuiT4wTi3F96d3h09xO+XOr05pAZW5+DhO7diHI9Kqi+8RUh1alcpGvRYhgyjAhFXvTFxYYr3R/qR4ejvp2JtyXWcqgamn8CwhXm4e38Z+llMiPxDo6L21GsM98WBa2Iw+6kUfJMainxPr83pGiie2o1JP53EqyJV6pzazLeiamoX9BnfBLt5VBIDFnm05/ZhxFv7sECWG4SiFXxvCzw2rTM+ZmXJFUnTOIhGRcSRcnSckYPGVWbEQlqGRoHCmxOQHaRFRloDZETq3GY1QNm8uB+9PzqEaZUWNIOzGkiiqgoFdu0dij5tglHNI5IYsMhjLzYj1uP9JafxuEzTMxiW9EebITHIZHWJ3M+ms4gdno7/lBkwWLYls37PAqRGYvKOQXiCFae6xDFYVGdKTFCtP4tesjxJJN0eDMSuHhE4wcoSuSfx/s1bk4bRQ+PxldPGZYnzzc4iPPpKBvqy4sSARR5pXzni9Sa0kWWGZyvQPRyLgzTed2uFyJO0D4Hhl764f0RDvO60kKWC+r0MTN1aAj9WnBiwyONsLkYHq0mmNdvssPVtgJWsKpH704hG16yeeHF4Q7zqlJAlrnRVRrR+cT+eZrWJAYs8zuI8dJNlMKsdCPPDyeEx2MeqEnkGnTg3/NwLL41oiFecErK0wKpcPPFtFlJYbWLAIo9SZEAXWW4P2oAYf2xu5A89q0rkObTiijSzJ14e3hBvO5YKkpk4dfg/tw9vVnICUmLAIk+xtRjBOVVoIcsRZwWGxWA9q0rkeXxre7KeaRSEb2QPWWLbueUY/d8spLHSxIBFHqHcjMYGMyLl6MFSKmFtG+JZM10T0W+knqxvuuGhYB+skX1pHRGyJh/GS9UW1pkYsMgDzMtFK0CGCRrsgMYHWQOjcYxVJfJcfSKhX9QPd/iocApyTtcoAlZWGXo9sgvX2zgNJDFgkbs7Y0BbWTYkTojhWuxRKzj+isjT9YxA7sQU3A0r5B01pQF+OI0nigzgKqbEgEXuS+qKP10j3/irXhHYJUIWEXmBt9oifVgCXpM1YolYZTKg2+wcDGWFiQGL3FaJCdrtpWgky9EmToz9GnDhViJv8mkq3gr1w3pZpxVWAe8fxmN6K+tLDFjkpix2hGoUSJSp5alvH4rjrCqR92joD8vb7fEIrKiR8+qXVY4BXxxHKitMDFjklubmINZsRLAcox10KhRqlchlVYm8y32NsW9oIt6XdeoGBdSzsnEfq0sMWOSWaixoZJfjaR0r0DwEWamhqGZVibzPp6l4x0+LY7I9VagCNhfhH+lFiGR1iQGL3I5WiXi5tmWy4SgrSuSdGvmj6vYkvCzbgHcFYLcgYlY2RrK6xIBFbkVqaC7KR6wsR5rYWLNAnGBVibzXUy0ww0+HzbL1YqnFOSoPt5lsrC0xYJGbOa0XAUumNQgHRyObFSXyXskBsN2WJONaheIqmFOJ7hvPoCmrSwxY5FY0CjSQa1t6K/JYUSLv9lQLLPTTYrtcvVhWG3SzcjCclSUGLHIbUseVUoEIWQ5WBcwhWhSyqkTerUkArLcn4RPZerFUwJJ8XFvB9QmJAYvcRaEBqgoTQq/6FqFoqfr5Qj8iFmdZVSKa1AI/azUyrVMozYlVga7bimWar4+IAYucbVsJgvIr4SfTkVYucpqRVSWipABUtg/HD5BrJnYL/NcWoScrSwxY5BbUCmilyfxk2lyZnQGLiGrPLXi6BWY4opEsGwTWFKGv3c7aEgMWuYcg8fKVaVt68TKzpEQk6RWJfZF+2CbXbcKjlehdYeF1kRiwyD3I2R6sAMDZaojIoYEP0CcKc2W5TagAzlQhadNZJLOyxIBF7kALyHaL0MRyEtGFbkzACqVdtucJfUXAasWqEgMWuYNA8dLJtC0Fy0lEF7omChm+vjgkS9+2OMNsLUYHVpUYsIiIyKsFqGFpGyLT0jkiYJ2qQccS9pUTAxYREXkzH3EVSw3FOll6sKSB7uVILjLI1utODFhERETuaVQsdourmTzjsJSI06kQzqoSAxa5unLxqpFpW5yhhoj+INwHp6CQYSF4aZSnBUErChHNqhIDFrk66QFquaZW0LKcRPR7LYJQ3TYUJ2WZrkGcrQ5XoDGrSgxY5OrskK/nKYjHLBH9nq8K0KhwSK4zjU6FWFaVGLDI1UmTg+pl2pafeGlYUiL6vfYhyJRrWzUWxHA8AjFgkUuz104OKtckgKFKBZ/uIaI/6t8AObL0YKmBX/IQYeKaEcSARa6sZwTKE4NQLccoLLsdwXorAxYR/ZHRhrNybUuEqxBWlBiwyKUFa2DXqVFy1S1LBVBjgM+CXD4+TUR/qgQyLQavqB2OQMSARa7LMcLdLk/LUmxHI1qWDVhVIvo9qx3VcgUsIRRcmosYsMjViVBUJNe2fJSIY0WJ6PcifVCjVskWsDglDDFgketrHYw8udYJO1COBFaUiH4vLQpVIb6wyDHeU6mAVTTm+CAhXRU1S0DOJPWx94tE3qIseZoDa4rQhFUloj8718i1oWIjQh/YgREqhQhZdih91ai5KRGl6v/9IcZzL4P4nqoADSqbBcoy1SkxYBFdGtEMPCnXtsQJr5nV7viViOhXKwvhX6YX17SrvS8jzi3VZjT58jAW/NqHJT43+dAfvtN2LmDVSAHLR4uKjqGOB3pOaZQ4enMijusUONouDMdE8KoM4NWWAYtITkZxCjpdjXIoHKeqq4tFKuBwGRK2lcC/e7hjQCsRkUOREQEWK7SyDHyRzlQXn9JY+km+517hRguwueC3L67Lc7QuLWofFEX4IGN4LHaKkLXhxnjs6xSObC0H6DBgEV2uQgOwohApO0vQd3keBh+sQKo4WcnS52SxIdhkc0zVwIBFRL+y1i7KVX/jphR/ekVVi3NWbEENYqcfwUDpEx8dQmmrEOxsFIClNzfEykFR2NuAs/sxYBH9FaMV2FGCRh8dw+iV+RhdqkcXR8tOaqWpZP1RgeI8FsyKE9GFOoehwl8Hc7UVrjXBguLc67ceq9CMMqRllCJt0WmYwnyxIy0Gsx5ril9Sw3HShz1bHkNht/NBCbpymVXwmSpaZisKcOfBcgwR7cdAx4nEWScJK0xrByK1TyQOsPpEdJ7BCp+EhTh4tgaN3er5eNu5lwKVrYKxZGAMvn6kGZYnB4CL9bg59mDRFVmYh7BfsnH7jzm4t7oGbR29VKo6+MF2VFntKOMeIKILGW0wmm04Kn7b2K3+4r81SAMzynFjRglunHYCW8Yl44sJzTGnoR8quXfdEzsj6bIszUd8/1V4/dp07Jl2DB9Vm0W40tZZuEKIDmXROhRzTxDRhfzVQJ8IbHHriRKk86g4n1ZZ0O3DA/i6/WLsfHwXxh+v4tI9DFjksdKLEHzNKjw9dDW2pRfgeXEiSHA8ZVOXYx1sQJw/jqUEQc89QkQXkuaouj4Bi2ubYm5OURu0yixo+sFBTG2/FBsn7sItp2q4n91qN3IMFv0d8YZWfHgYd3+ZiRdqTGh8CY8uO48FGJ6IZxf2xr/l3rT0PjhSvD+gsCqnqUqpjgEXeyWqL9IQgNNtozofC/IJvawLVJ4e6haLsKnSgs4etZKgVAUzEOKPlR92wAu3NsJWDecCZMAi9yTNX/XTKXR9+QDeOlmK/o7bgPX9hjbB+m1vdLyjEfbJtkmrEatOzO8w9/C3D2SXHR9Sba6KVSqUGh4BRPWXJYTqBv4xh1Jjes28odXYr5PDUi55wfgJu3HnRwfwjUeuJigNe7fC3D4SH0zrgjdSQ1HBI4YBi9zI7jL4TdqFZ1fnYhJU0NXJ+KpLOLE0DMSavYNxTbBGnlsAZYZin1fSH3l1R+76R7VqnU6j1EKEKx4ARC7AYrPAaNXDXxNwqn/StU8+2u3lWT6qi08Yla2HT4uF2FBjQSePHQRjAVQqZLzSBk9MaI5l/nxcjQGLXN+7h9D95QP4qMaIznClfhwTMLU7ho5vgqVybG5z9urQyZuen1GsLxykU/NuIJGrstltqDCWoX/S8Bde7PvRG5fyfv0kEz0f2Yx0aD34SXnp0m2EPS0Rb07vilcS/aSbiMSARS7ndA3w6n5MnH4Er4uTkp9LjV+wAgmBmH94GEb5ydCbJk7W6vvnj5hdWJ07ylftz51P5AbKDaUYlXL7Q0/1fPvzi32v2QaM3ohnF2fhTY+8VXghCxCqQ/pPPTFuYDSO80hxHbwfQtIM7JF9V2Hm9KOYDB8XC1e1LbUzn6Viop9Mtyo/3fb6P/MrTzNcEbmRIF0wlmf+/N76U0tbX+x7NeLK9nNPvDW8IT6Ter89mhooNaHf8HSkP7oLQ3ikMGCRi/joKFK7LcPKrErc4JItPRNM9zfHXcNjcUKOzZ0oPRKZfmrxs76aAO58IjeiEJcrm93m/+3eqS8aLYaLfr+05Mzsnhg/rCGmeHzIUjoeMoyfkoFfxu/EQ1bemGLAonrMLTbggyMYNWE7llsV52ZidyV2R7gy398CD33RCUvk2uyM/V/cYDDXRHIwO5H70al9cfTs/mt35m9IvqTvV8H+cy88OqYxxsOCSreehPTiCVSaO0v76WF82nUZ3jpexeOFAYvqXJUFGJqOBx/fjpkiWIW53C1B6VFkC87c1wI3fNEZ/5Fz0ydKDw1TcxYGInfme7L0SL9L/WapJ2tOT3z6dQ90b+wvznkmEbOs8ITpSP+cGth5Fs8MWoPpmVW8xjNgUZ2pEOFqxDo8tzoXn0Ej2juuFK6kYGUCYn2xcE4/9P6yM36Rc/MFVbk+5cbSFJVCxQOByE2plGpsz13X/nL/3N1JyNg9DDd91AV9mgdjuvhUruPWoeUqXudDmquFNdGGPFGBsYPX4OsTVfDlUVNvWZe8hdRzNWot3l6bh6dcYryV/dyrtjVpjw/EugeaYsoDTTAn0kf+H5ddfjygqDrf118TeOl/RbsdBoseVrvF8bFW5QOpB4y3GInqNWTFXsmfCxLB49Hm2PRwM2zadBYhmRXoOCMHLcXbvKX4cuC5Zt7FzlrS2SlC+mBrMQIqzQgWDdVI8ZUIx0QJUqNV5QJdGGpHyLpz4Br4Lu+PW5IDPPoGKQMW1R+p52rkOkwW4WpivYar84FKnMZEVimM0mHv8GhsbB6IJXcnY3u4E/9u4qRsVypUl9zWtNjM0sDaogGNr50ZF9hwm3Tq3JW/seuJ0iO3iK+F8lYjkZte+EQI6hOJMvFaPTYZq690O9L0NjUWRw9RyFkjwubnommpGW0W56Gt0YaOxdVIEicRhSNw1cfdAilkleOGwWtQtXwA7mvsz5DFgEWyqpZ6rtbhhbW59RSupEhjcZxgjMG+2N0rEktviceGZsHY3ToYJb4ueMfOKsKVCFDpL/b9+J7uCQOyzn/+bvuEb3flb/ro5TUPf2uyGrsyZBF5r8TaOU/151754tyWIX6dpxcxpsIM3xUFaD8jG703FGFEuR5dIPV+qes4bIlT1PEK3DNwNSpXXYPHGnFeZQYskkepCRi9AY+vy8VrdR6uatfNQpgvdlwTj9nD4/DLgCgcTnDxN7h0W1D879RL/abc2DW+/5kLvybdGuwU2+voqwM+v/65leO22+22aAVvFxLRBaRGo3jpb2+EzdIruwbvrCxAi8W5GLW6CLeU6NHO0atVV6cOqSerFI8+sxcFM7rjLe6husErg4d77SBuW5eNd+s0XNUOAK0RQer7Nzoi7dBwdJvZC2/fleT64crRHLXo0T1xwMe/D1cX6hjTI6dXw0HTpO8lIvo70nnvnsY4PKs33j44HJ1f64hr432xyDHI3lZHfwkf4KfjeP2RXbie82QxYNFV+vgYen14EF9AV0f72ep4Ga6JwfSF/dB1z1Dc/lxLrGqgc5/7/nbxn1qpsl/fauyai31v07BWy+11dnYkIk8QpYP5hZZYuGcYRrzdCQPi/UTQMqNunkTUQPnJfkz77Djac08wYNEVmpWD+Me24ju7Es5fD0bKGEagVQh+WD4AXVYOwLjhcTgQ5qZrgCkVSluQT4jxYt/np/GvVnLKByK6AtIDPU+lYM3uIRjxageMVNqxq06Wa9Yi+MU9+HbdGQRxLzBg0WU6VgntU7vwjdi7DZ0+mFKcEEK02PVuZwxel4bbBkZjvzvXTnrgx2Q1qVadmN/yYt97qjwz1Wqz8IAjoisW4QO82AoLNg9Gr38k4XlxTq12ase4uOqXGdDm4R34uNzM+jNg0WUZtx1vZpVjgFOXv6mdFNQwNB4vrbkGvSalYHmYh6xaL811tfDwjIeKawr/8nvKDSXKDaeWj9Op+UgOEV29LmHQz+6JN6f3QN9ALTY6tTdLA2ScwV1vHMRtrDwDFl2iR3dj5Lp8POHUQe1WIECNvZ90wzW/9MWr7UPgUSO91Uo1yo0lA15c/eArZYaSP3y90lgO8bV/F1Xnd5G+l4hILmMbY+fivkjrGYWPHIPgnTU2S1wjJmfgg2+z0JhVd9K1hCXwHKsLEfXpYUx1as+VNNYqAt/M64MJTQJQ5qm1lHqmDp7Z869Jy25vc3ObBz5NDG58UHxasSUnveWm0ysfO3x273A/x4zwfByHiOTVKwKGlQMwYew27PkxC5+K04yv7N0hCkdbOfLZfXj/+gRc58fhpAxY9OfKREtHuqdutSHBaXvVAtv1yXj2g454J97DV7eSnib01wQgq+zYdW+ue/w6lUIlTdmgMNtMEVKvlbTcjp3hyiPUjrszwmg1sBiXUTM/bYDjV3JSI08Enh+647/XROHEuC34SZxuomUvt/gZeRUY/cJ+3Dy5PWaw6gxY9CdezsCYIyW40Wm3Bk2oeqotxr3dTrzRvYQUoKTxWOc+ipT+X6PS/vo18gyG2nnPHuuRkLYTHDZxSW8NUbPg/9s7ZYbeXBPAdTmd697GWCeC1cBxmzFPHJ3JsocskQKmHMYbDyZjSbNAlLPiDFh0gVWFCJl6CO85MVyVinB1owhXK725zU6eyWQzokVE223Dmt64hdW4NDbYdDP2f2GusVeJtwYDltNDVhIOiF+Gi5C1SPaQJbZlsaDx+F2YtKg3XtRyd8qGpfQArx3Es1Y7kpwUropEuBrq3eGKPDs6K2C2mnSsxKWrNlX62WFnq6NuQ9aRad0xTKTbU7J3oKuBlafxz3m5TrqOMGCRO5qfh1Zr8/FPp/RFmlAuwtXNIlxtZaWJiOo9ZB2d1g03aIBS2UOWCsFvHsSTNo5+YMAix2rteHA7/iUa4PIPOTfB9GRb3CrC1RpWmojIRUJWY2wf2wR3wyjzdKQqYO8Z3DknB8msMgOW1/viOHrmV+AG2feiCZjQGuPfaYfFrDIRkWt5vz3mD0vCc5B7IQkl/F8/hMdNXGKVAcublYoQNPkonoFa5tHX4g3bMhwfvNIa01hlIiLX468GvuuGd8L88Is0mZVsVMC+Itw1PxcNWWUGLK817QR6FpRjmKx7ULxRGwchfVk/PB2kYY2JiFxVqBb2n3vhYZ0KOTKPx/Kfk4uxrDADllcqMQIfHcHjUMu4/+yOg6Ho7Q4YG+8HLgFKROTi+kYib0IKnpD1VqEa+OUU7jhUgQBWmAHL6ywvRKvcCgyXde+JN+gtjTHx+nicZIWJiNzDK60xMzkUP8t2q1AB6M1Iev8IhrG6DFhexWxz3B68T+w5H9k2Kt6YMYGYPTUVP7DCRETuQ5oY9LU2eEb8UiXbRlXAigLcXsF7GQxY3iSzCmGr8nGzrPNe2VH2VWc8GcJxV0REbueWRBy7NhFTZRvcIZLB6Qpcs70EjVhdBiyvII1jnHYC18KKKNk2Kt6QvWPw1vBYZLHCRETu6fmWmKxSoVC2Ae82+M3O4W1CBiwvUWMFvs/CrVL3rUxvIATqcPg/XfAJq0tE5L46h+HMtYn4XLaxWGpgUR6uM3JOLAYsb7C2EE3PVKO3bHvNAtydjH83CUA1q0tE5N4mNHXMX1guVzrIq0SX9WcQy8oyYHm8WTkYbrPLtCyOHfD3RcbjzfATK0tE5P46hiGnaQhmy9WLZbUhaF85erKyDFgeTZq5fUUBhst2e9DiWNNqSiN/GFhdIiL3F6gGnkrBdKVNppFYCmDmaQw08zYhA5Yn23gWCbmV6CLXHlMokTsmnr1XRESe5MZEbAv1x25ZloIWDfptJeiSVQM+Y86A5blWFaKHeMMEybIxC9ArGj/2jkQZK0vezi7+Uys1nPHnMujUfkaFzMugkjwC1bCmRWO2XLO7221oVmFGPCt7+dQsgeuTVjbfeBYDZLs9KCLWsyn4TsnzI5EUrpBbkdVwd/7mPICp4VLUWKpDLDazUqFguVyNtEduSsDin07gNeAqrxrSxkzwnZuDdqmhXOWDAcsDlZuhPlaJ7rKc+kVYiwnA1q7h2MvKEgF+an+sPrnwq+XH55oZsC75yqvQqXUBSoWKpXBBLYNxSKPGEXFAt5Rje2UmtLcD8/jmYMDyOKsK0ai8Bk1kuQtuBdKiMTdMy7oSSc7dIvSTerKIPEHTQJg6hmP91kIRsK72Ki/+/II8tHyvPaBjnr4sHIPlBkTroY1oPcgyPYNSAfMNCVjGqhIRee6F/eZErJNrVnfRLm+uUTIvMGB5oJk5aCfX7cEQfxzq2wCHWFUiIs8VpsUBQIah7uLaU1qD2K3FCGVVGbA8ikW0QKos6CDLxkTAahuMDX4q2RZTICIiFzQgCsdD/ZB/1dM1iIBVY0LQyRrO6M6A5WEOVUCzqxhJsoyWE2+0rmHYqOZIRSIijxaqRbVdgeOybEwBrY8SDVhVBixP20HhVjuiZdmYGpYRcdjFqhIReTapId0yCKch0yzsNRZEsKoMWB4lV49I2BEu0+ayw7XIYVWJiDybj7i6dwuXKWCJsPbDaXEtIgYsTzIvF7GwyLCfxJsszh9ZIVpUsapERJ7PZEOBXNsy2hDGijJgeRSVQqYlCkTAahWCzBgda0pE5CWKZQwLgSwnA5anka1bttqCLJaTiMhrlMq4LTvLyYDlWTtIIdP4K/HWGBiFXG+updVuUdjsVj5DSUTeQs7zXTjLyYDlMaTmgtEKf7m21z5Evu5id9TAP7YmRBduEiGLBxeRGzPbzEWsQp3zYQkYsDxGtQVYlIdQuVaMNNqg9+Z6Ngxuoo/0iz5qsVl4cBG5KamB1Daq8wFWol7a/MSA5TlHs94q2z6Sum0qvb2m0QFxy6wMWETuG7BsNlOz8DarWQliwKKr20Hy3UGXApbB2+t5c5sHf1Ip1WV2NsaI3I7JakTDkCarOsR053qqxIBFLsXrB3i3atAxp2t8vw+rTOWiGBzvTuQupEaR1Wax3NTmvtcCtcEsCDFgEblWwlTgkS7/eqdxSIv1BoueBSFyk/dtpbEcPRLTXhnR7JbNrAgxYBG5oJjABP1DXZ67VaVUbZduObAni8i1lRmK0Saq0/uP93jzdVaDGLCIXFi3+AE5X4xcMDg+qNG35cYSSE8W2u02FobIRUjvR4OlBjXm6vIbWo977M206ZPCfbkcHrkPNUtA3ioppFnp5CE/3DXv0P99vyRz1sPVpop+labyYPZoEdU/f23gqfbR3efe2PreqaJBdJwVIQYsIjcSJlrEYzs+vvz6VmOXF1Xnxe3M29BBqVA1AOd8Iaov0hPPmZ3j+hxoFNK0guUgBiwiNxbkEyK9cpuEtcxlNYiI6GpxDBYRERFdDMdOMGARERGRzDivDQOW55AGAZltsrUaNOIVyqoSEXkNOXudSljOy8MxWC5MI94aDf1RUSbPAjcKlQJaVvXPSesT7i7YHKM317Rae2pJrNlq8lUoFBzoTlSHLFazonlE2/LksJSsuMCG+xuGNKlmVa5KuIzbYocMA5bn8FUBA6JQvbdIfKC6+u2VmdmD9YcTus2M9KzFabMzpj9w+Oy+fuJTERxqQFR/NpxeAZvdimBd6InGoS3m/qPlPZ/2Shx0Qqng9f2yW9Uy3rUQrc1yVpQBy6OYbSiV65024zRi701iTc/bkbch5PMdb32QWZxxt0qphp8mgEUhcpVzn9XceH/hjid252++e0Dja194vs+Hn2uUGhbm8kJRrFzbUvIWIQOWBzor47YSWc7z4Wp91L9WPzRPb6nuxmBF5HqkHiud2leEBF34quO/fAa7PeX5vh89xpB1aaqtwOI8xMtx90NKajcl4gyretmhlFyZ0YY8WTakEEnNgObVFtY0u+Kkz0urH55htpm6+ar9WRAiFyatrBDoE4JVJxc8+ua6ic+YbWYW5RKoROEqLGgs14iHMC0DFgOWh+kShtOy7CXRitlTgqQcPXTeXE+z1YQpW195qsZS1U+j5Jh/IncRqA3G8sy5r244tawLq3FxB8oQqDchWZaAZYdeNPYLWVUGLI/SK0K0GlSolGlzjbJr5Lsn74625qbHb85e9QR7rojcj07tq5l5YNqLJquRxbiIjHI0rTYiXI6A5aNBRYwO+awqA5ZHqbGKgGVHgSwbs0C3LB/tvLmeG04tv0GlUAXzyCJyPz5qHQ6e2TN4V/6mlqzG39tbjlQRrq5+nLUNiPRHTu8IPkXIgOVhGvujpnkwsh3Ln14tFbCxGL3NXjy7U2ZJxiD1ZQ6StdgsqDZXiVel4/dEVH8UCoVm3aklfViJv7f+DHrLNf7KZsdhix2cF/Ay8SlCFxeiBcJ8sEsc2gOu/swEHK5A3yoLlKEaqV3iXYqq83QVxrLmKsWlPVYjzcVjtBqtkX4xS7sn9N+pVCiVm7NXdymszhuoVfkoLnU7RCRjr4BCidyKrLasxF87XgXfg2XoJssThKJxPyIWh3x4umPA8kQDGmDvZjnufiuBshq0WlWI5tfH45C31fFUWaa/CEc6f03gxc8pNgvUSk3m491fvKdf0vAN0gBbybjUJ7E2a0nalzve/q/eUhPHkEVUDxcupSaaVfhri/LRscaAZFnW7rA7niDcwemXr+iSS66uUyj2KhWQ5dlkux0+s7Ix1BvrqFKq7UqFyn7xGtmlV8nzfT+47trmt/4ariRSOBvW9MaVD3Z6drTeXFXJo5OoXvB21V81DkVlfs7BaMf8FnJUWY3KEbHIYGUZsDxS3wY4EuSL07Lc1FMDqwtxwxkj14P5K3qLHp3ien/SIyHtwF99z8Dk0TsGNB45TW/hUmlE5DpO18Bn2xmMkOX+lAhYITocaeTPJwgZsDyUvxqm1iHYLEvAkiYcrUKX9WfQmZX9yxLZezUcuPTvvkdaWiclot0im83GghGRy1ich756I1rI0oQWp7cOoVgf5yvLY1YMWOR6tGIvdQ3DStmGpSugfOsQ7rayk/1PGmx2aFVae5sGnS667pafJqBYqeQYLCJyDWZxjZh+EvdBrtOS2F6fSKSzsgxYHm1IDNaJN02NLBtTAzuKcMv8XMSwsr/PngoYrAblxuyVyRf73tPlx1OsnLaBiFzE7Bw0212EYXKtP+jvgzNj4rGJlWXA8mhdwnCqURB2yDi5Qsibh/Cwhb1Yf8yfSg3WnFx0T4Wx7C+/R/rahtPL75AWoyUiqm8mcW146xAmiqu6nywbFNeGUF9sbBOMs6wuA5ZHC9LANiQG82S7E17bi/XQglzwceff0al0yCjaOea7fZ/cb7f/MdFWmSrxr9UPTSysyht6uZOWEhE5w5wcNN1/BnfIdnvQAqRFYT4ry4DlFf4Rj0UqJQwybjL8zUN4lGOxft9wsyPIJ1Tx88H/fv7I4uvfX5O1qElmyUGt9Fp3aknzJ5ffMWVPwebJOrUfi0VE9U46h//7IJ4WV3T5FllVoeSGBCzh4+ZXjhONupFekTgaF4i1p6swWJZoXNuL9c8Fefjv6DgcZYX/lzRb++Ez+x5/Pf2x+1VK1WnxKYXVbm0ofvWT5sPiyhFE5Aq+yULXfWdxF+TqULcCHSKwdEi0TOvgein2YLkRndhbw2LwHSyyHgEBj+7EO8VcnP5PSYvLileASqluKV4pPiqdn3gxXBGRS8jWQ/XYTrwrGszydZjYHHdMvlWy++qqsAfLzdzaEPM/P4Zs8dsEuSJ2djlGTdqLW7/ugh9Y4T+n4LysHr1vpTUnTVaDzfEhXYxd1Ezhpw1Q831R/8Ztw/gqI3rLdjWXBrf74cD4JljD6jJgeZXekagYFo//W3wKz8nWHSy2899MvDcmHuuvjXWENyKvYbDq0TWu7/1d4vttAcCJzS7hEmy0GEJ+3P/5YoNFHygtvkz147NMtFyeg9dkvZJbgH4JmBaihYkVZsDyOi+k4MuVuXjEZEeQLA3I2m3EPLIDX/QeimtDNJy1l7yHyWpEqwYdDo9uccdBVuPS2GDzm3Pwa6veXC3OHwxY9WF3GXQv7cM0KMV1QLboLHanGoXPt8T3rPDV4zvDDXULd8yJNRNyrtIi2u2nKzF0xFr8q5TtFvIi0m0uk9WkZSUuXbWpUsdxiPVHqvwdm/HumRp0l/UqbgFGJ+Dr1FDOfcWA5a0XBAXwWDO8D6usUzY4+jM35uLFNw/iZlaZiMj12ES6umMLxmeU4BHIPA2fRoWSF1tiCqvMgOXV7myEw/Eh+F72m3k6KN7LwJfvH0FfVpmIyHVI813dtRXXfn8Mk2Uf4GMGRiTiiw6hyGOlGbC8WoB4c33UAW+oFKiQfeMqBE7ajhkiZKWy0kREruGbLPT57ih+hBby3tIWwU2pQsHzLfE+q8yARcKYeJwcHIePpZaHrKRB72pEi5C1QISsjqw0EVH9+vEUuo/fhlkiWvnLvnFxDRmViDdSQ1HMSjNg0TmixfGeCESZso83rQ1ZMSJkLXz/MHqw0kREdU8ac3X7Fgy9dR0WGexoIPvUY2L7fj7Y/UJLfMVqM2DRBXpEoPyxlnjGKTOWnA9ZO7Ho3UMYabCx3kREdemurbjj+2OOnqtQp8zraob1uTZ4omMouJ4HAxb93kutMKdVhHgDWpywcekNrULIUzsxa/AaTKywsN5ERM52vAqKWzfh5e+O4Vun3BasDVfoGoPpk5pz1nYGLPpToVrgvY6YqFai0ClT00ghSwPtunxMHrwK36wqRDirTkTkHJuKEd97Jeb+eBwvwVkztNkAXy2Of9kZz/kwCTBg0V8bEo3ccU0xAc7sYdIAW87izuHpWP/kHqSZeMuQiEg2pWbg+b0Y1XM51ufrMQrOnP7WAuvzrfFQ22AObGfAoov6oCNmJAXjS6eGLDVgtCPlvQNY1nkZPtxWgghWnojo6izIRcLAVfjqzb2YBwUaOfXqLK4RnaPxzlMtsIKVZ8CiS6ATe/PHnngi0he74Mzepdpbhsp9pXis+3Jsu3UT7ttTBh/uASKiy5NZCT9xDn105Bps3VmCcY4zqcKJP9AKRPhh1ZK+eEnDBMCARZeuaxiqvuqK20ULpdjpS4WpHLfxk348ji+7Lsfadw7hHzk14JpuREQXC1ZV0D28E2M7LsWWH0/gI9FojZHOqU4lrglaJbI/64y7wrWyz6BIDFieb1QcDj3XHveIlorV6T9MammJSGWyoevTOzG76SJsFa2xh3eXogH3BBHR/+QbrD+DuAm7MLHDUmz/7BCmV1rRRu41Bf+SCfopXXDL9fHI5d5wPjVL4JneaIMFe0oxYXEWptTJzbva24YwWNFetMY+mZWDFzuEYt71CZg5KhZbmgdBz71CRN4ouwYB32Sh13cncdORCowQTd8Ix9VXU4d/CRPsNzfFuLFJ2Mg9woBFV+mrzpg6tBpx+4rxTJ29kc8FLYsN0dvP4MHtBXjwBS0OdQ/H2mFxWN4lHHu6heOkr4r7h4g8U6EBOFiO5Pl56Hi0AoNWF6G/wYTkc/MK1v29IxNwUxM88V03/KBScP8wYNFVi/UFlvbHs4PXQLe/GBPqtLV0/kQiXmY7UtYVOl4Pis+UNw5Bpq8Su8Yk4GCIBid0KpwaGYcCtQLitOSYTfhyn4NUiD9ri/Cpg1ui5HHs4j+1Us1ZrC+DTu1rUMC1r9QGKxRlZsdZSAE4ZUSqdEb1KTbCd1k+oqQn/45WovGGIrQ+a0ZqYSWSxNcDfz0X1tfVVoSrm5Px1vfd8QHHBDFgkYxidMDy/pgoQlbovmLcVach68Kw9duRFnyiAqnidJeaUXzutKeAdZIOeqUCZVIAEy89Luc5GiuUTYOxc/dg3Mc9Tpd9ElSqkV+Vk3KgaEcVALbvL0GNuTrYYreoFArXLde8XESP24SfxDnP3wkBS9qetN1gkw3BZgN0jhgllUOJX3vy611tuHrnu+54juGKAYucIFrn6Mm6V4Ssqv3FGF/vb/zz7/TfbhOq9BYEiF+lV/xlb88KVFmcshojeQFfdQBWHZ//5bJjP9tZjUtvNPmodGqlwnXv9Zvt8Kk2o3udXOdc8dnpc+Hq++54WslmAwMWOU+MDtbl/fGICFmGfWfxhMudEBRX92dVCi5USlfeGaFSqlXixVJ4Vga0i//Ti1eg1/3jpTFXyXju/7rjLYar+u9LIC8g9WQt6Y9JXaLwDCyOoSdEROQ5bQVpFKv55mQ88IMIV2qGKwYsqjuxImRtGoi3n2uD20UrpwpcT5CIyP3ZHKMuztyXgjH/1x1fsueKAYvqgfSY7htt8cMH3TAgwgdH+OwdEZEbszjC1c4feyLty85YyJ4rBiyqZxOaYfvCfugbqcMsLppAROSGjEBqBL5ZcQ3SbkjAPhaEAYtcRNcwFO4YghtvSMJjohVUyd4sIiI3IA3vsODsbU1w75J+uLt/A8c0N8SARa4k0Q+Y2RMf/19P9I3zxTpOeEBE5MLMQIwvln3fG72/64H/RPqwJAxY5NJub4Td24Yg7abGeEK8gYvZm0VE5EKkc7IFubcl44GtgzD01kQcZlEYsMhNxPrCPKMnJn/TCz1ah+IHEbQ4nQMRUX2SbgcaYe4cji+WX4Pu33XHlwl+PDMzYJFburMRju4YjNs+74a0QDXWOG4b8u1MRFS3wUqcexv5Y8F7ndF3xQA8ODAa2SwMAxa5OR9xdDzQBKt3DcGAR1piWJAaqxxByzVvHV40/lntVoXNbuMDzETuzy7T97h0sIrzx7J3OmHwnqEY+UQKNgdruOMZsMijNAkApqRiye4hSJvUGsPahmIBzOI/i+ucwlSKi6+wGOkXXRnsE2oQIYs7lciNmW2mgkv4NmltU/eJJNK51OIIV4Ykf8x8txP67RuCIU+mYDmDFQMWebjG4nT1bgcs2T4YI7/piW6dIzFFBJscxxxatvo9ivNrEHWk8u9Ppo1CmpqiAmIPWmyc9IvIXVltFqREtL/ofE9aJaLFLzqXD1XSHQETEKLB8SGxeHtZP3TaOww3TUrB2jAt97c74+qmdNnEiQt3JmGX9NpbhpeW5iHts2O48VQ1+omTRYQ0pbAjutfVzTjxc0r1aHCyGvHNA3Hy7761fXS3xUfO7h+uVfG5ZiJ3Iz1xo1Xp9L0bDl55se89VIFGLhuqbLXBSqFBTvswrB4UjTkPNsWqRv6o5l5mwCJyaBeCUvGaJU4OszadQfS+MvSZk4tBu0vRx2JCE0f8kYKW6rcw5KSQFVhuQqL43d8GrJ6Jg+b8fOibl8WJOlIBDscicicmqwnxQY1+aR7R7sTFvndpPlrV+1v8/BAK66+/N4f4ITPOD+nXx2HZiFisaxeKUg3vJTFgEf0VaYzA0FgUiNfMp1ti5t4y+JyoROsZOehQY0aPVUVobbahicWI0F+D1u9PKqqrO5HNzEbLmxKx9m8DYXSXws5xvd/aeHrl5CBtCOegIHKrgGXQX5dyxxsapeaiuUalQLs6+UtZ/6ehV9s7ZXOc3+w+WpSKv8yhHg1wsEkgNt0Yj11Ng3Cwob9jtBUxYBFdvnYhMIrXzusSsFN8OC1XD1W1BRHzcpFktaNpgQENl+YhQZyQYsXXpbESQUcr4CdOO6oranWK05Xe6tjW35J6rR7p8q8pOeUn++VWnh7pp/ZnyCJyA+WGUtzc5v6nR7e488DFvjejHLqNhdCKt3a+06KM3RGiLMnB0IswVyI+KhLBKq9bJLJbBOJUqA+OjIjBaenz8X7cf95IYbfz4kKuYdNZBFeaRehXXEHisUER5Qdz+xBUXMq351ScDHhmxdiZ2RUnhvprAll8IhdltVthsNRIA9tf+vfA/7waogu/6J+pMEO5UZxPlApHP7lzLnJ2KDRKGHs3QJWGow2IAYvoN7mVp3xeTf/nG0fO7ntUpVRrtEofKBQ8UxLVN6lXWZpORW+uhmgA5Vzfauwzt7d9+HsftS+LQwxYRO7ROrZg9YmFqbMP/uf+0+XHBxnMNY0s4nMcAE9UT+FKXJN8Nf5Wf23g/laRHebe0ubBr1o16JjPyhADFpEbkubGKqrOD96Rt75JuaEkQalQKcDFgYjq/JpksVlM7aO7ZcYFNTwR4RfFSeuIAYuIiIiIanH2DSIiIiIGLCIiIiIGLCIiIiKvwolGiYQz1fk4VZ7ZekvOmjal+uKGKg5yJ6oPCrPNbOwU2+tow5Amu1s16JjLJ3rJbQ9mDnInb1as/3/27jxGroIO4Ph78+bYnT0KtGkLpS20tRR7gRUIWksAUVM0EElEBYWUUBDwH7mMnGJUgoEQJEpU+gcEVBJEiNxnEFIoUkpbrkJBuhRauk1pu8fsHO850yJRAnS3Ymem+/lsNj12Nm1+b+fN9x3z3rvBX1+6+cR7Vt12dnf/usPCIJXVVVB/mSi7cVzHfg+cNOusa4+ZfPwSE0FgQZNYtu7pfa947JwbuvvWH9uazgdRyg5daBS1i40WKwNBJa4MHDXpG1ctnHPB5WPb941NBoEFDR1Xiydd/PCZ9/SXew/IRS0GAg0cWn2lnmBUfuxN182/7bRxHRPdKJmm4CR3hp0V658ZcfHDZ9xeKPdX48qtN6Ch9wJUP9oznUF377rv/+4fV/6ytlcLBBY0mFJcCn77zC8u6SluOSgb5QLnW0Hjq+3Fast2BA+uvvO8m5//9VGJ5y0CCxrLM2sfn/zihmVn5jPt4gqaTC2yHlp918UD5YJhILCgkTzx5v3froZVm0lA80mn0sG7vWvnLV+/5CDTQGBBA3m5e/nR6VRm0I+vHYooVYpBT3HLts/a74H6qJ2PVUkq0eNv3nuEadDwGwRGwDCKq9a3e9ZMztQudTUIlXjbm5X6Ju4x5c6D9z68dh2e6Ll3Fh++auMLX89n8rlUGBkq7Oq9AtXnXdfm16ebBAILGkRPcUu+UOrLbD//alBxtfIn86456fDxRy/ffkJ8EPSX+4L7X7390N8v/dUtpUpxStq1s2DXv3ClMqNMgYbfGDAChs+WbyoJq587elztsGCcxO9cdMS1xx2x3/wP4qqmdkHS4w/83pKL5117XPWP3d7NBHXhiYfAgmZTKPUHc8bN/c28iV97/eMec/j4o16cO+GYGwulPgMDQGDBYLaOq/H04I4eNHXkjHvjxJ07ABBY8MllVf3IRtl49thDN+/ose25zi2plBPdARBY8IlqbwMvVArR4q5Hpu3osWveWz3z/ZPhAUBgwSepXSfr0TfuPr123auPU/vak10PndqSdi9DAAQW7FBL1BK8tGHZ/IseXvij3o+IrP5Sb/DTx8659J2tXUcO5aKlAAyjjXUjgP+27caymfbg+XVPXX3+A6dM/+6ss64f37n/P6tfCt/e+uaUW1fc8MPl65ec3JbpMCwABBYMPrKCoBZQr2xcseDyR886JZ3KrK39fTkujU+SOGzPdAaugQWAwIIhR1YS5KKW2q+1twpOqP1dJspuOxFeXO1+yzpxyY0hCGsX7jUGEFjwv7yUhIawm4vCdHcURQMmMWipUqU4JnAeLwgsgI/SW+oJTpx+2oJvzVj4hGkMdmZb9zz3vpOXbh14b0TkfpwgsAA+rHZosC3buWlUfswm0xictnJHOQxDx8nhE9i9Cwx7cVKxsTkE5bjk+iQgsAAABBYAgMACAEBgAQAILAAAgQUAILAAABBYAAACCwBAYAEAILAAAAQWAIDAAgBAYAEACCwAAIEF0ISS6kcmyvabxOC1ZTt6wyBMTAI+XtoIgOGsJZ0PFnc9cszGvndHWycOSlyqFDsL5f5sKrSNDgIL4CNkU9lgVffKn61c/6xhDFIYhkFrpq36q8ACgQXwEd4/RLjtE+DTYvMDAEBgAQAILAAAgQUAgMACABBYAAACCwAAgQUAILAAYMdCI0BgQYOIk0oYJ7GfedgNns5GgMCCBjF15Mwt4zv331qOS4YBTawUF7tMAYEFDaIzt0epJd26Mk5s/EKzqsTl4ICRs5aZBAILGsjssYf9rVQpGgQ0odqNuaNUuudLE7/6qGkgsKCBzJ3wlTvCMFxbW1EDzaVQ6g/m7DP3thmjD1ljGggsaCCzxx62af7UEy/tLW4NQm9EgqZR2yiqJKX3vjNz4c9ToecuAgsa6wc+TAWnf+78ReM6J97UX+4VWdAkcdVb3BKcPPucHxy89xdeNxEEFjSgPVtHBVd+edEZo9vG3bplYFOQJA4XQqOqJJWgp7ildNKss89eOOfCP9koolmEXlwYrtZsXh3cuPTq857qeuTHhUphZGs6v22P1vajD1biUA//Pj+ydjmVYnkgaEm3Ljth+oLzFs654GHTQWBBE3m5+/n9bnvhDwue6nr02OrKfVqxXMgX46LDh1CHuMpFLUEURhvGtI9bNnPMIX/+5oGn/nHyXtP6TAeBBU3q7a1rojipjH9xw3Oj33xvdT6TynhywC5UiovhZ0bO2DRpzwPWjWwdvb4t22EoCCwAALZzkjsAwKcsbQRAM1m+fsnYO1666cqWdGtuKN9XiSvByPzoVQvnXHBZGNq2BAQWwAe6Nr/RedfLt5zSnhsxpO8rVQaCiSOmrDh9zvmXefsCILAA/nOllcrEbdmOvrZMe35IgZXKBq2Zth4TBHYF+8kBAAQWAIDAAgAQWAAACCwAAIEFACCwAAAQWAAAAgsAQGABACCwAAAEFgCAwAIAEFgAAAgsAACBBQAgsAAAEFjA7i8b5fqSINmp7w3DVJwKI0ME/u/SRgDsaq90L5/wbu87k6NUujLU731pw7JxmVRmyJWUClNBf6l3jyfXPDivGlpDbrMkiSuzxx72bHu2s98SBAax0khMAdilLnnkjEvue+32K9oy7UPfKkxlglzUEuzMXqxqJAX95b6d+B8nQSkuFxcdd9+MA0bNfNUSBHa4rjICYFerBlJSi6v8TgTW9tzZ6UOEO/lvbgusJBU6qwIYHGsLYJeLUunCzkZSHcUt6dYeSw8Y1AadQ4QMF6s3vdyxaOk11+Wi3F6mUV+rNq6YuqFv3bQobJ6d6HESV2aNOfSx9mxHryVYP8VKMZi019TFCw4+90rTQGBBA3jm7b+PPOfuE15vTbd1mkZ95dK5IB1mgmbbi1Uo99dCywKs6zLoCz6/zxfvvf7Yv8w3DRqZc7AYNqIwSvKZ9p7WdF5gNYAmPEQYtKRbLbg6q50Hl0u3eicnjf+zagQAAAILAEBgAQAILAAABBYAgMACABBYAAAILAAAgQUAILAAAPgQt8phmEnCIHD/zfoLm/lnyOKr//xDc0BgQaOslpM4KFVKmXSqZBh1FoXpbfeUazbluNSU91DcnVSfw7Xl4LWLxt+MTBIrC4aHvlJPes3m1TNSYZQxjfpatPTqBUvWPn5m89w8Oam+qFcGLpx71UnjR0xaYwnWT1zdUMpn2jZNGDH5NdOgkdkKYNjIZ9rL00bNXmYS9deZ2/PIOKk01f85CZJ4yl6ffXriHlPesgQBgQU0nIFKIT9QLgRRqllWQUlQisutA+X+vKUHCCygIY3v3P+tGWPmPNeSbpZeqR0iLA+0ZPIFSw8YDOdgAQB8ylwHCwBAYAEACCwAAIEFAIDAAgAQWAAAAgsAAIEFACCwAAAEFgAAAgsAQGABAAgsAACBBQCAwAIAEFgAAAILAACBBQAgsAAABBYAAAILAEBgAQAILAAABBYAgMACABBYAAACCwAAgQUAILAAAAQWAAACCwBAYAEACCwAAAQWAIDAAgAQWAAACCwAAIEFACCwAAAEFgAAAgsAQGABAAgsAAAEFgCAwAIAEFgAAAgsAACBBQAgsAAAEFgAAAILAEBgAQAILAAABBYAgMACABBYAAAILAAAgQUAILAAABBYAAACCwBAYAEACCwAAAQWAIDAAgAQWAAACCwAAIEFACCwAAAQWAAAAgsAQGABACCwAAAEFgCAwAIAEFgAAAgsAACBBQAgsAAAEFgAAAILAEBgAQAgsAAABBYAgMACAEBgAQAILAAAgQUAILAAABBYAACN5l8CDAAUYqiRcpgESAAAAABJRU5ErkJggg==;" vertex="1" parent="1">
          <mxGeometry x="130" y="-210" width="156.42" height="140" as="geometry" />
        </mxCell>
        <mxCell id="2yFaQCDJbEZuNwVm9jHY-23" value="" style="dashed=0;outlineConnect=0;html=1;align=center;labelPosition=center;verticalLabelPosition=bottom;verticalAlign=top;shape=mxgraph.weblogos.oracle;fillColor=#FF0000;strokeColor=none" vertex="1" parent="1">
          <mxGeometry x="163.20999999999998" y="-190" width="90" height="23" as="geometry" />
        </mxCell>
        <mxCell id="2yFaQCDJbEZuNwVm9jHY-28" value="" style="endArrow=classic;startArrow=classic;html=1;rounded=0;exitX=0.998;exitY=0.562;exitDx=0;exitDy=0;exitPerimeter=0;" edge="1" parent="1" source="2yFaQCDJbEZuNwVm9jHY-22">
          <mxGeometry width="50" height="50" relative="1" as="geometry">
            <mxPoint x="420" y="-140" as="sourcePoint" />
            <mxPoint x="600" y="-130" as="targetPoint" />
            <Array as="points">
              <mxPoint x="440" y="-130" />
            </Array>
          </mxGeometry>
        </mxCell>
        <mxCell id="2yFaQCDJbEZuNwVm9jHY-29" value="" style="fontColor=#000000;verticalAlign=middle;verticalLabelPosition=middle;labelPosition=right;align=left;html=1;outlineConnect=0;fillColor=#d6d6d6;strokeColor=#999;gradientColor=none;gradientDirection=north;strokeWidth=2;shape=stencil(fVBbDsIgEDwNvw3CCUzVD+MlEClgeAXQ2tu7dGtMm2jCx+zMZJlZwvtiRFKEUVGSkpXwA2HsKbIVVwc0A8UguWMU5yC8QuqsnJsGG4C8RB1RHld2fiR0TxqmX8D7IWalc3yE28qx8X3c1gvdMpYscbmpNRXCwXeCJ1Iq3X3J0sWsgZMmR6+kKBUG6xvlIGKXgsaYL9y0dJpW07hpvL1A+/ZPbN6D4UdDALOMZ5+VNw==);labelBackgroundColor=none;aspect=fixed;" vertex="1" parent="1">
          <mxGeometry x="60" y="-260" width="80" height="80" as="geometry" />
        </mxCell>
        <mxCell id="2yFaQCDJbEZuNwVm9jHY-30" value="Cloudflare domain" style="whiteSpace=wrap;html=1;rounded=1;arcSize=2;shadow=0;glass=0;dashed=1;comic=0;strokeColor=#078DDB;strokeWidth=4;fillColor=#edf4fd;fontSize=16;align=center;labelPosition=center;verticalLabelPosition=middle;verticalAlign=top;fontStyle=0;horizontal=1;spacingLeft=0;connectable=0;container=1;collapsible=0;recursiveResize=0;dashPattern=4 3 4 3 4 3 10 3;" vertex="1" parent="1">
          <mxGeometry x="610" y="-210" width="380" height="310" as="geometry" />
        </mxCell>
        <mxCell id="2yFaQCDJbEZuNwVm9jHY-6" value="" style="fontColor=#000000;verticalAlign=middle;verticalLabelPosition=middle;labelPosition=right;align=left;html=1;outlineConnect=0;fillColor=#d6d6d6;strokeColor=#999;gradientColor=none;gradientDirection=north;strokeWidth=2;shape=stencil(fVHtbsMgDHwafi7K4AmmbPvVPoRDXUAtHzJO0739nLBqS6RO4sf57jD2ocxQPRRUuoda0LIy70rrG1CA8Sq0FsU38lX3rU4QsVHHkNASnFnYQ3a56fPGbz5U/6YW3P8CM5wzoaM8pdPGsfM93CGCW4asZFtzz1yqMuL7lEMwdy6wn8apItmcGBN3NkfRxpA83gWcsr0gvTDGcgXGKlSEykh/TetDq/RYTRre5FqQrl1Jrq14b1P8BPK1qeZdXPv4lpH/WdkMYniSjoBVbn+2Kt8=);labelBackgroundColor=none;" vertex="1" parent="2yFaQCDJbEZuNwVm9jHY-30">
          <mxGeometry x="20" y="80" width="70" height="70" as="geometry" />
        </mxCell>
        <mxCell id="2yFaQCDJbEZuNwVm9jHY-11" value="" style="fontColor=#000000;verticalAlign=middle;verticalLabelPosition=middle;labelPosition=right;align=left;html=1;outlineConnect=0;fillColor=#d6d6d6;strokeColor=#999;gradientColor=none;gradientDirection=north;strokeWidth=2;shape=stencil(ZVDLDsIgEPwark0FLx5N1ZP/YNZCKRFYAq3Vv3cpGoMmQHZmH8wsE10aISjGW0hB9RMTB8b5HaKBqyWaU2Ys5Ia3BXtwqlCdxVkOFmIecEaNpWCpGsSRtXuW45aJbsCodMTZyyrxSRsHOg9LsS9DxmkKiQmqO9GZg0WQzWJuxilpoMGoic44ZExxj86hTxTt8t3S85V5ySKb4HUR+ih/vH09K7T8uP7dQhZUWyPmz93KlhWvxAs=);labelBackgroundColor=none;sketch=0;fontFamily=Titillium Web;fontSource=https%3A%2F%2Ffonts.googleapis.com%2Fcss%3Ffamily%3DTitillium%2BWeb;fontSize=14;aspect=fixed;" vertex="1" parent="2yFaQCDJbEZuNwVm9jHY-30">
          <mxGeometry x="20" y="-20" width="120" height="120" as="geometry" />
        </mxCell>
        <mxCell id="2yFaQCDJbEZuNwVm9jHY-33" value="&lt;div&gt;Minecraft sub domain&lt;/div&gt;&lt;div&gt;mc.budder.uk&lt;/div&gt;" style="text;html=1;align=center;verticalAlign=middle;resizable=0;points=[];autosize=1;strokeColor=none;fillColor=none;" vertex="1" parent="2yFaQCDJbEZuNwVm9jHY-30">
          <mxGeometry x="90" y="95" width="140" height="40" as="geometry" />
        </mxCell>
      </root>
    </mxGraphModel>
  </diagram>
</mxfile>
